<svg width="1831" height="903" viewBox="0 0 1831 903" preserveAspectRatio="none" fill="none" xmlns="http://www.w3.org/2000/svg">
<path fill-rule="evenodd" clip-rule="evenodd" d="M54.4957 1.90735e-05H51.4355C49.9564 25.0943 24.9938 50.1575 0.000244141 51.6425V53.7202V59.4848V842.981V848.746V850.824C24.9938 852.309 49.9564 877.372 51.4355 902.466H54.4957H59.2463H1771.58H1776.33H1779.39C1780.87 877.372 1805.83 852.309 1830.83 850.824V847.751V842.981V59.4848V53.7202V51.6425C1805.83 50.1575 1780.87 25.0943 1779.39 1.90735e-05H1776.33H1771.58H59.2463H54.4957ZM58.0506 7.95857C53.082 30.5421 30.4198 53.2957 7.92685 58.2843V844.182C30.4198 849.171 53.082 871.924 58.0506 894.508H1772.78C1777.74 871.924 1800.41 849.171 1822.9 844.182V58.2843C1800.41 53.2957 1777.74 30.5421 1772.78 7.95857H58.0506Z" fill="#141313"/>
</svg>
