<svg width="213" height="79" viewBox="0 0 213 79" preserveAspectRatio="none" fill="#971C22" xmlns="http://www.w3.org/2000/svg">
<g filter="url(#filter0_d_436_1217)">
<g clip-path="url(#clip0_436_1217)">
<path d="M2.73451 -105.171V-114H203.265V-105.171H206V63.1709H203.265V72H2.73451V63.1709H0V-105.171H2.73451Z" fill="#141313"/>
<rect y="-108.541" width="2.38839" height="175.082" fill="#971C22"/>
<rect width="2.38839" height="14.3304" transform="matrix(0 1 1 0 0 64.084)" fill="#971C22"/>
<rect width="2.38839" height="14.3304" transform="matrix(1 0 0 -1 11.9414 66.4724)" fill="#971C22"/>
<rect width="2.38839" height="9.55357" transform="matrix(0 1 1 0 4.77734 52.1421)" fill="#971C22"/>
<rect x="5.45996" y="71.9998" width="2.38839" height="195.082" transform="rotate(-90 5.45996 71.9998)" fill="#971C22"/>
<rect x="7.84863" y="71.9998" width="2.38839" height="14.3304" transform="rotate(-180 7.84863 71.9998)" fill="#971C22"/>
<rect x="5.45996" y="60.058" width="2.38839" height="14.3304" transform="rotate(-90 5.45996 60.058)" fill="#971C22"/>
<rect x="19.791" y="67.2229" width="2.38839" height="9.55357" transform="rotate(-180 19.791 67.2229)" fill="#971C22"/>
<rect width="2.38839" height="14.3304" transform="matrix(1 0 0 -1 198.084 71.9996)" fill="#971C22"/>
<rect width="2.38839" height="14.3304" transform="matrix(0 -1 -1 0 200.473 60.0579)" fill="#971C22"/>
<rect width="2.38839" height="9.55357" transform="matrix(1 0 0 -1 186.142 67.2228)" fill="#971C22"/>
<rect x="205.999" y="66.541" width="2.38839" height="175.082" transform="rotate(180 205.999 66.541)" fill="#971C22"/>
<rect x="205.999" y="64.1523" width="2.38839" height="14.3304" transform="rotate(90 205.999 64.1523)" fill="#971C22"/>
<rect x="194.058" y="66.5408" width="2.38839" height="14.3304" transform="rotate(-180 194.058 66.5408)" fill="#971C22"/>
<rect x="201.223" y="52.2106" width="2.38839" height="9.55357" transform="rotate(90 201.223 52.2106)" fill="#971C22"/>
</g>
</g>
<defs>
<filter id="filter0_d_436_1217" x="0" y="-114" width="212.88" height="192.88" filterUnits="userSpaceOnUse" color-interpolation-filters="sRGB">
<feFlood flood-opacity="0" result="BackgroundImageFix"/>
<feColorMatrix in="SourceAlpha" type="matrix" values="0 0 0 0 0 0 0 0 0 0 0 0 0 0 0 0 0 0 127 0" result="hardAlpha"/>
<feOffset dx="3.44" dy="3.44"/>
<feGaussianBlur stdDeviation="1.72"/>
<feComposite in2="hardAlpha" operator="out"/>
<feColorMatrix type="matrix" values="0 0 0 0 0 0 0 0 0 0 0 0 0 0 0 0 0 0 0.25 0"/>
<feBlend mode="normal" in2="BackgroundImageFix" result="effect1_dropShadow_436_1217"/>
<feBlend mode="normal" in="SourceGraphic" in2="effect1_dropShadow_436_1217" result="shape"/>
</filter>
<clipPath id="clip0_436_1217">
<rect width="206" height="186" fill="#971C22" transform="translate(0 -114)"/>
</clipPath>
</defs>
</svg>
