<svg width="24" height="24" viewBox="0 0 24 24" fill="none" xmlns="http://www.w3.org/2000/svg">
<path d="M1 20.25H0H1ZM6.5 14.75V13.75V14.75ZM17.5 14.75V13.75V14.75ZM1 20.25H2C2 19.0565 2.47411 17.9119 3.31802 17.068L2.61091 16.3609L1.90381 15.6538C0.684819 16.8728 0 18.5261 0 20.25H1ZM2.61091 16.3609L3.31802 17.068C4.16193 16.2241 5.30653 15.75 6.5 15.75V14.75V13.75C4.77609 13.75 3.12279 14.4348 1.90381 15.6538L2.61091 16.3609ZM6.5 14.75V15.75H17.5V14.75V13.75H6.5V14.75ZM17.5 14.75V15.75C18.6935 15.75 19.8381 16.2241 20.682 17.068L21.3891 16.3609L22.0962 15.6538C20.8772 14.4348 19.2239 13.75 17.5 13.75V14.75ZM21.3891 16.3609L20.682 17.068C21.5259 17.9119 22 19.0565 22 20.25H23H24C24 18.5261 23.3152 16.8728 22.0962 15.6538L21.3891 16.3609ZM23 20.25H22C22 20.7141 21.8156 21.1592 21.4874 21.4874L22.1945 22.1945L22.9016 22.9016C23.6049 22.1984 24 21.2446 24 20.25H23ZM22.1945 22.1945L21.4874 21.4874C21.1592 21.8156 20.7141 22 20.25 22V23V24C21.2446 24 22.1984 23.6049 22.9016 22.9016L22.1945 22.1945ZM20.25 23V22H3.75V23V24H20.25V23ZM3.75 23V22C3.28587 22 2.84075 21.8156 2.51256 21.4874L1.80546 22.1945L1.09835 22.9016C1.80161 23.6049 2.75544 24 3.75 24V23ZM1.80546 22.1945L2.51256 21.4874C2.18437 21.1592 2 20.7141 2 20.25H1H0C0 21.2446 0.395088 22.1984 1.09835 22.9016L1.80546 22.1945ZM16.125 5.125H15.125C15.125 6.85089 13.7259 8.25 12 8.25V9.25V10.25C14.8305 10.25 17.125 7.95546 17.125 5.125H16.125ZM12 9.25V8.25C10.2741 8.25 8.875 6.85089 8.875 5.125H7.875H6.875C6.875 7.95546 9.16954 10.25 12 10.25V9.25ZM7.875 5.125H8.875C8.875 3.39911 10.2741 2 12 2V1V0C9.16954 0 6.875 2.29454 6.875 5.125H7.875ZM12 1V2C13.7259 2 15.125 3.39911 15.125 5.125H16.125H17.125C17.125 2.29454 14.8305 0 12 0V1Z" fill="white"/>
</svg>
