<svg width="20" height="21" viewBox="0 0 20 21" fill="none" xmlns="http://www.w3.org/2000/svg">
<path d="M2.5 18.6H6.25V12.6C6.25 12.26 6.37 11.9752 6.61 11.7456C6.85 11.516 7.14667 11.4008 7.5 11.4H12.5C12.8542 11.4 13.1512 11.5152 13.3912 11.7456C13.6312 11.976 13.7508 12.2608 13.75 12.6V18.6H17.5V7.8L10 2.4L2.5 7.8V18.6ZM0 18.6V7.8C0 7.42 0.0887498 7.06 0.26625 6.72C0.44375 6.38 0.688333 6.1 1 5.88L8.5 0.48C8.9375 0.16 9.4375 0 10 0C10.5625 0 11.0625 0.16 11.5 0.48L19 5.88C19.3125 6.1 19.5575 6.38 19.735 6.72C19.9125 7.06 20.0008 7.42 20 7.8V18.6C20 19.26 19.755 19.8252 19.265 20.2956C18.775 20.766 18.1867 21.0008 17.5 21H12.5C12.1458 21 11.8492 20.8848 11.61 20.6544C11.3708 20.424 11.2508 20.1392 11.25 19.8V13.8H8.75V19.8C8.75 20.14 8.63 20.4252 8.39 20.6556C8.15 20.886 7.85333 21.0008 7.5 21H2.5C1.8125 21 1.22417 20.7652 0.735 20.2956C0.245833 19.826 0.000833333 19.2608 0 18.6Z" fill="white"/>
</svg>
