<svg width="24" height="24" viewBox="0 0 24 24" fill="none" xmlns="http://www.w3.org/2000/svg">
<path d="M7.41809 1.09091H16.5817C20.0726 1.09091 22.909 3.92728 22.909 7.41818V16.5818C22.909 18.2599 22.2424 19.8693 21.0558 21.0559C19.8692 22.2425 18.2598 22.9091 16.5817 22.9091H7.41809C3.92718 22.9091 1.09082 20.0727 1.09082 16.5818V7.41818C1.09082 5.74009 1.75744 4.13072 2.94404 2.94413C4.13063 1.75753 5.74 1.09091 7.41809 1.09091ZM7.19991 3.27273C6.15833 3.27273 5.15942 3.6865 4.42291 4.423C3.6864 5.15951 3.27264 6.15843 3.27264 7.2V16.8C3.27264 18.9709 5.029 20.7273 7.19991 20.7273H16.7999C17.8415 20.7273 18.8404 20.3135 19.5769 19.577C20.3134 18.8405 20.7272 17.8416 20.7272 16.8V7.2C20.7272 5.02909 18.9708 3.27273 16.7999 3.27273H7.19991ZM17.7272 4.90909C18.0888 4.90909 18.4357 5.05276 18.6914 5.30849C18.9472 5.56423 19.0908 5.91107 19.0908 6.27273C19.0908 6.63439 18.9472 6.98124 18.6914 7.23697C18.4357 7.4927 18.0888 7.63637 17.7272 7.63637C17.3655 7.63637 17.0187 7.4927 16.7629 7.23697C16.5072 6.98124 16.3635 6.63439 16.3635 6.27273C16.3635 5.91107 16.5072 5.56423 16.7629 5.30849C17.0187 5.05276 17.3655 4.90909 17.7272 4.90909ZM11.9999 6.54546C13.4465 6.54546 14.8339 7.12013 15.8569 8.14306C16.8798 9.16598 17.4545 10.5534 17.4545 12C17.4545 13.4466 16.8798 14.834 15.8569 15.8569C14.8339 16.8799 13.4465 17.4545 11.9999 17.4545C10.5533 17.4545 9.16589 16.8799 8.14297 15.8569C7.12004 14.834 6.54537 13.4466 6.54537 12C6.54537 10.5534 7.12004 9.16598 8.14297 8.14306C9.16589 7.12013 10.5533 6.54546 11.9999 6.54546ZM11.9999 8.72728C11.1319 8.72728 10.2995 9.07208 9.68574 9.68583C9.07199 10.2996 8.72718 11.132 8.72718 12C8.72718 12.868 9.07199 13.7004 9.68574 14.3142C10.2995 14.9279 11.1319 15.2727 11.9999 15.2727C12.8679 15.2727 13.7003 14.9279 14.3141 14.3142C14.9278 13.7004 15.2726 12.868 15.2726 12C15.2726 11.132 14.9278 10.2996 14.3141 9.68583C13.7003 9.07208 12.8679 8.72728 11.9999 8.72728Z" fill="white"/>
</svg>
