<svg width="21" height="22" viewBox="0 0 21 22" fill="none" xmlns="http://www.w3.org/2000/svg">
<path d="M2.38636 22C1.73011 22 1.16852 21.7608 0.701591 21.2825C0.234659 20.8042 0.000795454 20.2286 0 19.5555V2.44444C0 1.77222 0.233864 1.19696 0.701591 0.718666C1.16932 0.24037 1.73091 0.000814814 2.38636 0H9.54545C9.88352 0 10.1671 0.117333 10.3962 0.352C10.6253 0.586666 10.7394 0.87674 10.7386 1.22222C10.7378 1.5677 10.6233 1.85818 10.395 2.09366C10.1667 2.32915 9.88352 2.44607 9.54545 2.44444H2.38636V19.5555H9.54545C9.88352 19.5555 10.1671 19.6729 10.3962 19.9075C10.6253 20.1422 10.7394 20.4323 10.7386 20.7778C10.7378 21.1232 10.6233 21.4137 10.395 21.6492C10.1667 21.8847 9.88352 22.0016 9.54545 22H2.38636ZM16.9134 12.2222H8.35227C8.0142 12.2222 7.73102 12.1049 7.50273 11.8702C7.27443 11.6355 7.15989 11.3455 7.15909 11C7.1583 10.6545 7.27284 10.3644 7.50273 10.1298C7.73261 9.8951 8.0158 9.77777 8.35227 9.77777H16.9134L14.6761 7.48611C14.4574 7.26203 14.348 6.98703 14.348 6.66111C14.348 6.33518 14.4574 6.05 14.6761 5.80555C14.8949 5.56111 15.1733 5.43359 15.5114 5.423C15.8494 5.4124 16.1378 5.52974 16.3764 5.775L20.642 10.1444C20.8807 10.3889 21 10.6741 21 11C21 11.3259 20.8807 11.6111 20.642 11.8555L16.3764 16.225C16.1378 16.4694 15.8546 16.5868 15.5269 16.577C15.1991 16.5672 14.9156 16.4397 14.6761 16.1944C14.4574 15.95 14.3532 15.6599 14.3635 15.3242C14.3739 14.9885 14.488 14.7082 14.706 14.4833L16.9134 12.2222Z" fill="white"/>
</svg>
