<svg width="22" height="22" viewBox="0 0 22 22" fill="none" xmlns="http://www.w3.org/2000/svg">
<path d="M9.28889 16.1333L17.9056 7.51667L16.1944 5.80555L9.28889 12.7111L5.80555 9.22778L4.09444 10.9389L9.28889 16.1333ZM2.44444 22C1.77222 22 1.19696 21.7608 0.718667 21.2826C0.24037 20.8043 0.000814815 20.2286 0 19.5556V2.44444C0 1.77222 0.239556 1.19696 0.718667 0.718667C1.19778 0.24037 1.77304 0.000814815 2.44444 0H19.5556C20.2278 0 20.8034 0.239556 21.2826 0.718667C21.7617 1.19778 22.0008 1.77304 22 2.44444V19.5556C22 20.2278 21.7608 20.8034 21.2826 21.2826C20.8043 21.7617 20.2286 22.0008 19.5556 22H2.44444ZM2.44444 19.5556H19.5556V2.44444H2.44444V19.5556Z" fill="white"/>
</svg>
